<svg xmlns="http://www.w3.org/2000/svg" width="784" height="323" viewBox="0 0 784 323">
    <g opacity=".304">
        <path d="M383.505 625.209L364.672 614.804 364.672 431.731 459.85 379.052 383.505 336.78 289 389.133 289 657.402 383.505 709.43 627 575.133 553.01 531.559z" transform="translate(0 -555)"/>
        <path d="M394.711 0L0 218.466 0 656.045 75.135 697.473 75.135 260.865 394.711 83.826 538.637 163.769 555 88.681z" transform="translate(0 -555)"/>
        <path d="M710.293 615.886L396.793 793.65 230.707 699.406 230.707 346.803 396.793 252.56 562.879 346.478 636.586 304.881 636.586 304.231 396.793 168.39 157 304.231 157 741.978 396.793 877.819 784 658.459 784 219.737 710.293 261.984z" transform="translate(0 -555)"/>
    </g>
</svg>
