<?xml version="1.0" encoding="UTF-8"?>
<svg width="784px" height="323px" viewBox="0 0 784 323" version="1.1" xmlns="http://www.w3.org/2000/svg" xmlns:xlink="http://www.w3.org/1999/xlink">
    <!-- Generator: Sketch 62 (91390) - https://sketch.com -->
    <title>logo</title>
    <desc>Created with Sketch.</desc>
    <g id="web" stroke="none" stroke-width="1" fill="none" fill-rule="evenodd" opacity="0.102262">
        <g id="01MAIN" transform="translate(-431.000000, -80.000000)" fill="#000000" fill-rule="nonzero">
            <g id="section1" transform="translate(0.000000, 80.000000)">
                <g id="bg">
                    <g id="logo" transform="translate(431.000000, -555.000000)">
                        <polygon id="Path" points="383.505473 625.209443 364.671642 614.803863 364.671642 431.730697 459.849751 379.052451 383.505473 336.779783 289 389.132856 289 657.401705 383.505473 709.429603 627 575.132591 553.00995 531.559227"></polygon>
                        <polygon id="Path" points="394.711191 0 0 218.465997 0 656.045298 75.1353791 697.472924 75.1353791 260.864583 394.711191 83.8262122 538.637184 163.768585 555 88.6810122"></polygon>
                        <polygon id="Path" points="710.293103 615.886256 396.793103 793.649881 230.706897 699.405911 230.706897 346.803475 396.793103 252.559506 562.87931 346.478496 636.586207 304.881157 636.586207 304.231199 396.793103 168.389892 157 304.231199 157 741.978187 396.793103 877.819495 784 658.458532 784 219.736606 710.293103 261.983903"></polygon>
                    </g>
                </g>
            </g>
        </g>
    </g>
</svg>