<svg xmlns="http://www.w3.org/2000/svg" width="397" height="140" viewBox="0 0 397 140">
    <g fill="none" fill-rule="evenodd" opacity=".141">
        <path fill="#FFF" d="M383 117.5c0 1.933-1.567 3.5-3.5 3.5s-3.5-1.567-3.5-3.5 1.567-3.5 3.5-3.5 3.5 1.567 3.5 3.5M125 56.5c0 1.933-1.567 3.5-3.5 3.5s-3.5-1.567-3.5-3.5 1.567-3.5 3.5-3.5 3.5 1.567 3.5 3.5M155 20.5c0 1.933-1.567 3.5-3.5 3.5s-3.5-1.567-3.5-3.5 1.567-3.5 3.5-3.5 3.5 1.567 3.5 3.5M275 78.5c0 1.933-1.566 3.5-3.5 3.5-1.933 0-3.5-1.567-3.5-3.5s1.567-3.5 3.5-3.5c1.934 0 3.5 1.567 3.5 3.5M309 68.5c0 1.933-1.567 3.5-3.5 3.5s-3.5-1.567-3.5-3.5 1.567-3.5 3.5-3.5 3.5 1.567 3.5 3.5M250 40.5c0 1.933-1.567 3.5-3.5 3.5s-3.5-1.567-3.5-3.5 1.567-3.5 3.5-3.5 3.5 1.567 3.5 3.5M204 65.5c0 1.933-1.567 3.5-3.5 3.5s-3.5-1.567-3.5-3.5 1.567-3.5 3.5-3.5 3.5 1.567 3.5 3.5M212 26.5c0 1.933-1.567 3.5-3.5 3.5s-3.5-1.567-3.5-3.5 1.567-3.5 3.5-3.5 3.5 1.567 3.5 3.5M309 31.5c0 1.933-1.567 3.5-3.5 3.5s-3.5-1.567-3.5-3.5 1.567-3.5 3.5-3.5 3.5 1.567 3.5 3.5M124 34.5c0 1.933-1.567 3.5-3.5 3.5s-3.5-1.567-3.5-3.5 1.567-3.5 3.5-3.5 3.5 1.567 3.5 3.5M26 38.5c0 1.933-1.567 3.5-3.5 3.5S19 40.433 19 38.5s1.567-3.5 3.5-3.5 3.5 1.567 3.5 3.5M277 45.5c0 1.933-1.567 3.5-3.5 3.5s-3.5-1.567-3.5-3.5 1.567-3.5 3.5-3.5 3.5 1.567 3.5 3.5M244 146.5c0 1.933-1.567 3.5-3.5 3.5s-3.5-1.567-3.5-3.5 1.567-3.5 3.5-3.5 3.5 1.567 3.5 3.5M183 136.5c0 1.933-1.567 3.5-3.5 3.5s-3.5-1.567-3.5-3.5 1.567-3.5 3.5-3.5 3.5 1.567 3.5 3.5M148 95.5c0 1.933-1.567 3.5-3.5 3.5s-3.5-1.567-3.5-3.5 1.567-3.5 3.5-3.5 3.5 1.567 3.5 3.5M237 80.5c0 1.933-1.567 3.5-3.5 3.5s-3.5-1.567-3.5-3.5 1.567-3.5 3.5-3.5 3.5 1.567 3.5 3.5M112 100.5c0 1.933-1.567 3.5-3.5 3.5s-3.5-1.567-3.5-3.5 1.567-3.5 3.5-3.5 3.5 1.567 3.5 3.5M190 47.5c0 1.933-1.567 3.5-3.5 3.5s-3.5-1.567-3.5-3.5 1.567-3.5 3.5-3.5 3.5 1.567 3.5 3.5M228 51.5c0 1.933-1.567 3.5-3.5 3.5s-3.5-1.567-3.5-3.5 1.567-3.5 3.5-3.5 3.5 1.567 3.5 3.5M45 58.5c0 1.933-1.567 3.5-3.5 3.5S38 60.433 38 58.5s1.567-3.5 3.5-3.5 3.5 1.567 3.5 3.5M8 60.5C8 62.433 6.433 64 4.5 64S1 62.433 1 60.5 2.567 57 4.5 57 8 58.567 8 60.5M183 95.5c0 1.933-1.567 3.5-3.5 3.5s-3.5-1.567-3.5-3.5 1.567-3.5 3.5-3.5 3.5 1.567 3.5 3.5M401 145.5c0 1.933-1.567 3.5-3.5 3.5s-3.5-1.567-3.5-3.5 1.567-3.5 3.5-3.5 3.5 1.567 3.5 3.5M358 141.5c0 1.933-1.567 3.5-3.5 3.5s-3.5-1.567-3.5-3.5 1.567-3.5 3.5-3.5 3.5 1.567 3.5 3.5M359.702 89.603c-1.16-1.544-.85-3.738.694-4.9 1.546-1.162 3.74-.851 4.901.694 1.162 1.545.851 3.739-.694 4.9-1.545 1.162-3.74.851-4.9-.694" transform="translate(-1 -19)"/>
        <path stroke="#FFF" d="M240.5 146.5L179.5 95.5 142.5 165.5 108.5 100.5M22.5 38.5L4.5 60.5M120.5 11.5L120.5 34.5 151.5 20.5M121.5 56.5L120.5 34.5" transform="translate(-1 -19)"/>
        <path stroke="#FFF" d="M260.5 11.5L273.5 45.5 233.5 80.5 179.5 95.5 120.5 34.5 22.5 38.5 41.5 58.5M271.5 78.5L273.5 45.5 305.5 31.5" transform="translate(-1 -19)"/>
        <path stroke="#FFF" d="M246.5 40.5L273.5 45.5 305.5 68.5M3.5 3.5L22.5 38.5M417.5 103.5L379.5 117.5 362.5 87.5M354.5 141.5L379.5 117.5 397.5 145.5M233.5 80.5L200.5 65.5 208.5 26.5" transform="translate(-1 -19)"/>
        <path stroke="#FFF" d="M186.5 47.5L200.5 65.5 224.5 51.5M179.5 136.5L179.5 95.5 379.5 117.5M144.5 95.5L179.5 95.5" transform="translate(-1 -19)"/>
    </g>
</svg>
