<svg xmlns="http://www.w3.org/2000/svg" width="83" height="80" viewBox="0 0 83 80">
    <g fill="none" fill-rule="evenodd" opacity=".139">
        <path fill="#FFF" d="M66.46 80.47c0 2.76-2.24 5-5 5-2.762 0-5-2.24-5-5 0-2.762 2.238-5 5-5 2.76 0 5 2.238 5 5M10.891 73.178c0 2.76-2.238 5-5 5-2.761 0-5-2.24-5-5 0-2.762 2.239-5 5-5 2.762 0 5 2.238 5 5M92.665 26.412c0 2.761-2.239 5-5 5-2.762 0-5-2.239-5-5 0-2.762 2.238-5 5-5 2.761 0 5 2.238 5 5M14.266 8.647c-1.66-2.207-1.215-5.341.992-7 2.207-1.66 5.341-1.216 7 .991 1.66 2.207 1.216 5.342-.99 7.001-2.208 1.66-5.342 1.215-7.002-.992M26.188 44.275c.89-6.288 6.71-10.663 12.998-9.773 6.287.891 10.662 6.71 9.772 12.998-.89 6.288-6.71 10.663-12.998 9.772-6.288-.89-10.663-6.71-9.772-12.997" transform="scale(1 -1) rotate(-14 -314.351 19.36)"/>
        <path stroke="#FFF" d="M87.665 26.411L37.667 45.511 18.263 5.643M5.891 73.178L37.573 45.887 61.459 80.47" transform="scale(1 -1) rotate(-14 -314.351 19.36)"/>
    </g>
</svg>
