<svg xmlns="http://www.w3.org/2000/svg" xmlns:xlink="http://www.w3.org/1999/xlink" width="85" height="80" viewBox="0 0 85 80">
    <defs>
        <path id="prefix__a" d="M0.101 0.031L9.748 0.031 9.748 10 0.101 10z"/>
        <path id="prefix__c" d="M0 0.227L9.968 0.227 9.968 9.874 0 9.874z"/>
    </defs>
    <g fill="none" fill-rule="evenodd" opacity=".198">
        <g transform="scale(1 -1) rotate(-13 -337.295 11.665) translate(56 74)">
            <mask id="prefix__b" fill="#fff">
                <use xlink:href="#prefix__a"/>
            </mask>
            <path fill="#FFF" d="M9.748 5.016C9.748 7.768 7.588 10 4.925 10 2.26 10 .1 7.768.1 5.016.101 2.263 2.261.03 4.925.03c2.663 0 4.823 2.232 4.823 4.985" mask="url(#prefix__b)"/>
        </g>
        <g transform="scale(1 -1) rotate(-13 -337.295 11.665) translate(0 68)">
            <mask id="prefix__d" fill="#fff">
                <use xlink:href="#prefix__c"/>
            </mask>
            <path fill="#FFF" d="M9.968 5.05c0 2.665-2.231 4.824-4.984 4.824C2.232 9.874 0 7.714 0 5.051 0 2.387 2.232.227 4.984.227c2.753 0 4.984 2.16 4.984 4.824" mask="url(#prefix__d)"/>
        </g>
        <path fill="#FFF" d="M92 25c0 2.762-2.238 5-5 5s-5-2.238-5-5c0-2.761 2.238-5 5-5s5 2.239 5 5M12.004 8.004c-1.66-2.207-1.216-5.341.992-7 2.206-1.66 5.34-1.216 7 .991 1.66 2.207 1.216 5.342-.991 7.001-2.207 1.66-5.342 1.216-7.001-.992M25.115 42.887c.89-6.287 6.71-10.663 12.998-9.772 6.287.89 10.663 6.71 9.772 12.998-.89 6.288-6.71 10.663-12.998 9.772-6.288-.89-10.663-6.71-9.772-12.998" transform="scale(1 -1) rotate(-13 -337.295 11.665)"/>
        <path stroke="#FFF" d="M87 24.817L36.46 45 17 5M5 72.455L37.164 45 61 79" transform="scale(1 -1) rotate(-13 -337.295 11.665)"/>
    </g>
</svg>
