<svg xmlns="http://www.w3.org/2000/svg" xmlns:xlink="http://www.w3.org/1999/xlink" width="426" height="130" viewBox="0 0 426 130">
    <defs>
        <path id="prefix__a" d="M0 0.097L6.976 0.097 6.976 6.574 0 6.574z"/>
    </defs>
    <g fill="none" fill-rule="evenodd" opacity=".204" transform="translate(.962)">
        <path fill="#FFF" d="M385 119.5c0 1.933-1.567 3.5-3.5 3.5s-3.5-1.567-3.5-3.5 1.567-3.5 3.5-3.5 3.5 1.567 3.5 3.5M125 58.5c0 1.933-1.567 3.5-3.5 3.5s-3.5-1.567-3.5-3.5 1.567-3.5 3.5-3.5 3.5 1.567 3.5 3.5M155 22.5c0 1.933-1.567 3.5-3.5 3.5s-3.5-1.567-3.5-3.5 1.567-3.5 3.5-3.5 3.5 1.567 3.5 3.5M118.702 15.603c-1.16-1.545-.85-3.739.695-4.9 1.545-1.162 3.739-.851 4.9.694 1.162 1.545.851 3.739-.694 4.9-1.545 1.162-3.74.85-4.9-.694M279 80.5c0 1.933-1.566 3.5-3.5 3.5-1.933 0-3.5-1.567-3.5-3.5s1.567-3.5 3.5-3.5c1.934 0 3.5 1.567 3.5 3.5M312 71.5c0 1.933-1.567 3.5-3.5 3.5s-3.5-1.567-3.5-3.5 1.567-3.5 3.5-3.5 3.5 1.567 3.5 3.5M253 43.5c0 1.933-1.567 3.5-3.5 3.5s-3.5-1.567-3.5-3.5 1.567-3.5 3.5-3.5 3.5 1.567 3.5 3.5M206 67.5c0 1.933-1.567 3.5-3.5 3.5s-3.5-1.567-3.5-3.5 1.567-3.5 3.5-3.5 3.5 1.567 3.5 3.5M215 28.5c0 1.933-1.567 3.5-3.5 3.5s-3.5-1.567-3.5-3.5 1.567-3.5 3.5-3.5 3.5 1.567 3.5 3.5M312 31.5c0 1.933-1.567 3.5-3.5 3.5s-3.5-1.567-3.5-3.5 1.567-3.5 3.5-3.5 3.5 1.567 3.5 3.5M260.703 13.603c-1.162-1.545-.85-3.739.694-4.9 1.545-1.162 3.739-.851 4.9.694 1.162 1.545.851 3.739-.694 4.9-1.545 1.162-3.739.85-4.9-.694M125 35.5c0 1.933-1.567 3.5-3.5 3.5s-3.5-1.567-3.5-3.5 1.567-3.5 3.5-3.5 3.5 1.567 3.5 3.5M28 41.5c0 1.933-1.567 3.5-3.5 3.5S21 43.433 21 41.5s1.567-3.5 3.5-3.5 3.5 1.567 3.5 3.5M281 46.5c0 1.933-1.567 3.5-3.5 3.5s-3.5-1.567-3.5-3.5 1.567-3.5 3.5-3.5 3.5 1.567 3.5 3.5M150 97.5c0 1.933-1.567 3.5-3.5 3.5s-3.5-1.567-3.5-3.5 1.567-3.5 3.5-3.5 3.5 1.567 3.5 3.5M238 82.5c0 1.933-1.567 3.5-3.5 3.5s-3.5-1.567-3.5-3.5 1.567-3.5 3.5-3.5 3.5 1.567 3.5 3.5M114 102.5c0 1.933-1.567 3.5-3.5 3.5s-3.5-1.567-3.5-3.5 1.567-3.5 3.5-3.5 3.5 1.567 3.5 3.5M193 48.5c0 1.933-1.567 3.5-3.5 3.5s-3.5-1.567-3.5-3.5 1.567-3.5 3.5-3.5 3.5 1.567 3.5 3.5M230 52.5c0 1.933-1.567 3.5-3.5 3.5s-3.5-1.567-3.5-3.5 1.567-3.5 3.5-3.5 3.5 1.567 3.5 3.5"/>
        <mask id="prefix__b" fill="#fff">
            <use xlink:href="#prefix__a"/>
        </mask>
        <path fill="#FFF" d="M6.976 3.335c0 1.79-1.561 3.24-3.488 3.24C1.562 6.574 0 5.124 0 3.334 0 1.546 1.562.096 3.488.096c1.927 0 3.488 1.45 3.488 3.24" mask="url(#prefix__b)"/>
        <path fill="#FFF" d="M47 59.5c0 1.933-1.567 3.5-3.5 3.5S40 61.433 40 59.5s1.567-3.5 3.5-3.5 3.5 1.567 3.5 3.5M7 61.5C7 63.433 5.433 65 3.5 65S0 63.433 0 61.5 1.567 58 3.5 58 7 59.567 7 61.5M183 97.5c0 1.933-1.567 3.5-3.5 3.5s-3.5-1.567-3.5-3.5 1.567-3.5 3.5-3.5 3.5 1.567 3.5 3.5"/>
        <path stroke="#FFF" d="M242 147.325L179.762 96 142.25 167 109 101.988M24 40L5 62M122 11L122 33 152 20.307M124 58L123 36"/>
        <path stroke="#FFF" d="M263.003 11L275 46.084 233.868 82.025 179.453 97 120.325 34.532 22 39.714 42.567 59.395M273 81L274.756 47.673 309 34"/>
        <path stroke="#FFF" d="M249 41L275.572 45.242 309 69M4 4L25 40"/>
        <path fill="#FFF" d="M425 104.5c0 1.933-1.567 3.5-3.5 3.5s-3.5-1.567-3.5-3.5 1.567-3.5 3.5-3.5 3.5 1.567 3.5 3.5M363.702 89.603c-1.16-1.544-.85-3.738.694-4.9 1.546-1.162 3.74-.851 4.901.694 1.162 1.545.851 3.739-.694 4.9-1.545 1.162-3.74.851-4.9-.694"/>
        <path stroke="#FFF" d="M421 105L382.188 120 367 90M358 142.968L382.451 122 401 148M236 82L202 66.391 211.273 28"/>
        <path stroke="#FFF" d="M187 49L200.715 68 226 52.167M180.427 136L180 97 382 119.645M144 98L180 97"/>
    </g>
</svg>
