<?xml version="1.0" encoding="UTF-8"?>
<svg width="32px" height="37px" viewBox="0 0 32 37" version="1.1" xmlns="http://www.w3.org/2000/svg" xmlns:xlink="http://www.w3.org/1999/xlink">
    <!-- Generator: Sketch 61.2 (89653) - https://sketch.com -->
    <title>Group 13</title>
    <desc>Created with Sketch.</desc>
    <g id="Page-2" stroke="none" stroke-width="1" fill="none" fill-rule="evenodd">
        <g id="Navigation_Open-Copy" transform="translate(-20.000000, -20.000000)" fill="#000000">
            <g id="Menu">
                <g id="Group-14" transform="translate(20.000000, 20.000000)">
                    <g id="Group-13">
                        <polygon id="Fill-1" points="15.9147279 26.3837442 15.1346284 25.9369728 15.1346284 18.0765888 19.0769169 15.8148087 15.9147279 13.9998 12.0003 16.2476185 12.0003 27.7659431 15.9147279 29.9998 26.0003 24.2336569 22.9356234 22.3628017"></polygon>
                        <polygon id="Fill-2" points="16.3567166 -0.0002 0.0003 9.08332668 0.0003 27.2759485 3.11383108 28.9998 3.11383108 10.8462037 16.3567166 3.48383712 22.3208583 6.80908074 23.0003 3.68703898"></polygon>
                        <polygon id="Fill-3" points="6.0003 12.7444516 6.0003 31.2551484 15.9438737 36.9998 32.0003 27.7231497 32.0003 9.17122334 28.9438737 10.9578375 28.9438737 25.9241667 15.9438737 33.4416892 9.05672633 29.4561654 9.05672633 14.5448089 15.9438737 10.5592851 22.831021 14.5310657 25.8874473 12.771938 25.8874473 12.7444516 15.9438737 6.9998"></polygon>
                    </g>
                </g>
            </g>
        </g>
    </g>
</svg>