<svg xmlns="http://www.w3.org/2000/svg" width="104" height="24" viewBox="0 0 104 24">
    <g fill="#FFF" opacity=".402">
        <path d="M10.488 17.094L9.974 16.809 9.974 11.802 12.572 10.362 10.488 9.205 7.909 10.637 7.909 17.974 10.488 19.397 17.135 15.724 15.115 14.533z"/>
        <path d="M10.78 0L0 5.973 0 17.936 2.052 19.068 2.052 7.132 10.78 2.292 14.711 4.477 15.158 2.424z"/>
        <path d="M19.405 7.162L19.405 16.838 10.837 21.699 6.298 19.122 6.298 9.481 10.837 6.904 15.376 9.472 17.39 8.335 17.39 8.317 10.837 4.603 4.284 8.317 4.284 20.286 10.837 24 21.419 18.002 21.419 6.007zM34.06 18.411L34.06 8.602 37.572 8.602 37.572 6.674 28.262 6.674 28.262 8.602 31.774 8.602 31.774 18.411zM55.638 6.674l4.302 11.737h-2.319l-.958-2.599H52.53l-.958 2.599h-2.32l4.303-11.737h2.084zm-1.042 2.8h-.033l-1.513 4.46h3.11l-1.564-4.46zM68.629 18.411L70.528 16.516 70.528 14.722 68.242 14.722 68.242 15.678 67.453 16.466 64.091 16.466 63.234 15.611 63.234 9.474 64.091 8.619 67.453 8.619 68.242 9.407 68.242 10.363 70.528 10.363 70.528 8.569 68.629 6.674 62.881 6.674 60.949 8.602 60.949 16.483 62.881 18.411zM74.41 18.411L74.41 13.532 76.175 13.532 79.267 18.411 81.889 18.411 78.158 12.526 81.603 6.674 79.032 6.674 76.192 11.587 74.41 11.587 74.41 6.674 72.125 6.674 72.125 18.411zM91.569 18.411L91.569 16.483 85.351 16.483 85.351 13.465 91.081 13.465 91.081 11.57 85.351 11.57 85.351 8.602 91.569 8.602 91.569 6.674 83.065 6.674 83.065 18.411zM100.627 6.674l1.798 1.81v3.555l-1.143 1.157 1.21 1.325v3.89h-2.285v-3.37l-1.008-1.124h-3.664v4.494h-2.286V6.674h7.378zm-1.042 1.911h-4.05v3.454h4.05l.588-.586v-2.28l-.588-.588zM46.294 6.575l1.798 1.811v3.555l-1.142 1.157 1.21 1.324v3.89h-2.286v-3.37l-1.008-1.123h-3.664v4.493h-2.286V6.575h7.378zm-1.042 1.912h-4.05v3.454h4.05l.588-.587v-2.28l-.588-.587z"/>
    </g>
</svg>
