<?xml version="1.0" encoding="UTF-8"?>
<svg width="30px" height="30px" viewBox="0 0 30 30" version="1.1" xmlns="http://www.w3.org/2000/svg" xmlns:xlink="http://www.w3.org/1999/xlink">
    <!-- Generator: Sketch 62 (91390) - https://sketch.com -->
    <title>Group</title>
    <desc>Created with Sketch.</desc>
    <g id="Symbols" stroke="none" stroke-width="1" fill="none" fill-rule="evenodd">
        <g id="icon3(hover)" transform="translate(-5.000000, -5.000000)">
            <g id="Group" transform="translate(5.000000, 5.000000)">
                <path d="M22.5,9.302 L21.304,10.448 C21.201,10.527 21.149,10.655 21.169,10.782 L21.169,19.219 C21.147,19.347 21.199,19.476 21.304,19.553 L22.475,20.699 L22.475,20.954 L16.595,20.954 L16.595,20.71 L17.807,19.534 C17.926,19.415 17.926,19.38 17.926,19.2 L17.926,12.377 L14.557,20.928 L14.103,20.928 L10.18,12.377 L10.18,18.108 C10.147,18.349 10.229,18.592 10.399,18.765 L11.974,20.674 L11.974,20.929 L7.5,20.929 L7.5,20.674 L9.075,18.765 C9.244,18.592 9.319,18.347 9.279,18.108 L9.279,11.48 C9.299,11.296 9.229,11.114 9.09,10.991 L7.689,9.301 L7.689,9.046 L12.04,9.046 L15.398,16.423 L18.354,9.053 L22.5,9.053 L22.5,9.302 Z M15.005,0 L15,0 C6.716,0 0,6.716 0,15 C0,23.284 6.716,30 15,30 C23.284,30 30,23.284 30,15 C30.001,6.718 23.288,0.002 15.005,0 L15.005,0 Z" id="Fill-7" fill="#393939"></path>
                <path d="M22.5,9.302 L21.304,10.448 C21.201,10.527 21.149,10.655 21.169,10.782 L21.169,19.219 C21.147,19.347 21.199,19.476 21.304,19.553 L22.475,20.699 L22.475,20.954 L16.595,20.954 L16.595,20.71 L17.807,19.534 C17.926,19.415 17.926,19.38 17.926,19.2 L17.926,12.377 L14.557,20.928 L14.103,20.928 L10.18,12.377 L10.18,18.108 C10.147,18.349 10.229,18.592 10.399,18.765 L11.974,20.674 L11.974,20.929 L7.5,20.929 L7.5,20.674 L9.075,18.765 C9.244,18.592 9.319,18.347 9.279,18.108 L9.279,11.48 C9.299,11.296 9.229,11.114 9.09,10.991 L7.689,9.301 L7.689,9.046 L12.04,9.046 L15.398,16.423 L18.354,9.053 L22.5,9.053 L22.5,9.302 Z" id="Path" fill="#B6B6B6"></path>
            </g>
        </g>
    </g>
</svg>