<?xml version="1.0" encoding="utf-8"?>
<!-- Generator: Adobe Illustrator 24.0.3, SVG Export Plug-In . SVG Version: 6.00 Build 0)  -->
<svg version="1.1" id="Layer_1" xmlns="http://www.w3.org/2000/svg" xmlns:xlink="http://www.w3.org/1999/xlink" x="0px" y="0px"
	 viewBox="0 0 11 12" style="enable-background:new 0 0 11 12;" xml:space="preserve">
<style type="text/css">
	.st0{fill:#FFFFFF;}
</style>
<title>복사</title>
<desc>Created with Sketch.</desc>
<g>
	<g id="icon_x2F_copy_1_">
		<g id="복사_1_">
			<path class="st0" d="M7.5,10h-6C0.7,10,0,9.3,0,8.5v-7C0,0.7,0.7,0,1.5,0h6C8.3,0,9,0.7,9,1.5v7C9,9.3,8.3,10,7.5,10z M1.5,1
				C1.2,1,1,1.2,1,1.5v7C1,8.8,1.2,9,1.5,9h6C7.8,9,8,8.8,8,8.5v-7C8,1.2,7.8,1,7.5,1H1.5z"/>
		</g>
	</g>
	<g>
		<path class="st0" d="M9.5,2H9v1h0.5C9.8,3,10,3.2,10,3.5v7c0,0.3-0.2,0.5-0.5,0.5h-6C3.2,11,3,10.8,3,10.5V10H2v0.5
			C2,11.3,2.7,12,3.5,12h6c0.8,0,1.5-0.7,1.5-1.5v-7C11,2.7,10.3,2,9.5,2z"/>
	</g>
</g>
</svg>
