<?xml version="1.0" encoding="UTF-8"?>
<svg width="30px" height="30px" viewBox="0 0 30 30" version="1.1" xmlns="http://www.w3.org/2000/svg" xmlns:xlink="http://www.w3.org/1999/xlink">
    <!-- Generator: Sketch 62 (91390) - https://sketch.com -->
    <title>Fill 7</title>
    <desc>Created with Sketch.</desc>
    <g id="Symbols" stroke="none" stroke-width="1" fill="none" fill-rule="evenodd">
        <g id="icon3" transform="translate(-5.000000, -5.000000)" fill="#393939">
            <path d="M27.5,14.302 L26.304,15.448 C26.201,15.527 26.149,15.655 26.169,15.782 L26.169,24.219 C26.147,24.347 26.199,24.476 26.304,24.553 L27.475,25.699 L27.475,25.954 L21.595,25.954 L21.595,25.71 L22.807,24.534 C22.926,24.415 22.926,24.38 22.926,24.2 L22.926,17.377 L19.557,25.928 L19.103,25.928 L15.18,17.377 L15.18,23.108 C15.147,23.349 15.229,23.592 15.399,23.765 L16.974,25.674 L16.974,25.929 L12.5,25.929 L12.5,25.674 L14.075,23.765 C14.244,23.592 14.319,23.347 14.279,23.108 L14.279,16.48 C14.299,16.296 14.229,16.114 14.09,15.991 L12.689,14.301 L12.689,14.046 L17.04,14.046 L20.398,21.423 L23.354,14.053 L27.5,14.053 L27.5,14.302 Z M20.005,5 L20,5 C11.716,5 5,11.716 5,20 C5,28.284 11.716,35 20,35 C28.284,35 35,28.284 35,20 C35.001,11.718 28.288,5.002 20.005,5 L20.005,5 Z" id="Fill-7"></path>
        </g>
    </g>
</svg>