<?xml version="1.0" encoding="UTF-8"?>
<svg width="30px" height="30px" viewBox="0 0 30 30" version="1.1" xmlns="http://www.w3.org/2000/svg" xmlns:xlink="http://www.w3.org/1999/xlink">
    <!-- Generator: Sketch 62 (91390) - https://sketch.com -->
    <title>Fill 4</title>
    <desc>Created with Sketch.</desc>
    <g id="Symbols" stroke="none" stroke-width="1" fill="none" fill-rule="evenodd">
        <g id="icon5" transform="translate(-5.000000, -5.000000)" fill="#393939">
            <path d="M22.441,27.306 C22.057,27.374 21.915,27.137 21.915,26.94 C21.915,26.693 21.923,25.431 21.923,24.411 C21.965,23.889 21.777,23.375 21.407,23.006 C23.099,22.818 24.882,22.585 24.882,19.662 C24.882,18.83 24.586,18.414 24.1,17.879 C24.331,17.207 24.303,16.473 24.023,15.821 C23.387,15.624 21.932,16.64 21.932,16.64 C20.687,16.299 19.373,16.299 18.128,16.64 C18.128,16.64 16.672,15.625 16.037,15.821 C15.754,16.473 15.727,17.209 15.961,17.881 C15.473,18.343 15.212,18.994 15.247,19.664 C15.247,22.573 16.953,22.82 18.645,23.008 C18.369,23.281 18.197,23.641 18.16,24.028 C17.725,24.224 16.614,24.563 15.951,23.392 C15.704,22.965 15.273,22.676 14.785,22.61 C14.045,22.601 14.735,23.077 14.735,23.077 C15.229,23.305 15.577,24.183 15.577,24.183 C16.02,25.541 18.142,25.084 18.142,25.084 C18.142,25.72 18.151,26.752 18.151,26.941 C18.151,27.138 18.014,27.375 17.625,27.307 C14.535,26.249 12.467,23.333 12.494,20.067 C12.494,15.868 15.705,12.681 19.903,12.681 C24.101,12.681 27.504,15.868 27.504,20.067 C27.562,23.322 25.518,26.244 22.441,27.306 M5,20 C5,28.284 11.715,35 20,35 C28.284,35 35,28.284 35,20 C35.001,11.717 28.288,5.001 20.004,5 C11.715,5 5,11.716 5,20 Z" id="Fill-4"></path>
        </g>
    </g>
</svg>