<?xml version="1.0" encoding="UTF-8"?>
<svg width="30px" height="30px" viewBox="0 0 30 30" version="1.1" xmlns="http://www.w3.org/2000/svg" xmlns:xlink="http://www.w3.org/1999/xlink">
    <!-- Generator: Sketch 62 (91390) - https://sketch.com -->
    <title>Group</title>
    <desc>Created with Sketch.</desc>
    <g id="Symbols" stroke="none" stroke-width="1" fill="none" fill-rule="evenodd">
        <g id="icon4(hover)" transform="translate(-5.000000, -5.000000)">
            <g id="Group" transform="translate(5.000000, 5.000000)">
                <path d="M20.958,11.944 C20.968,12.077 20.968,12.211 20.968,12.344 C20.968,16.4079978 17.874,21.0910248 12.221,21.0910248 C10.547,21.095 8.908,20.616 7.5,19.711 C7.747,19.738 7.994,19.751 8.242,19.749 C9.626,19.753 10.972,19.29 12.06,18.435 C10.744,18.411 9.59,17.555 9.185,16.303 C9.377,16.334 9.571,16.35 9.766,16.351 C10.038,16.35 10.311,16.315 10.574,16.246 C9.139,15.956 8.107,14.694 8.109,13.229 L8.109,13.191 C8.535,13.429 9.012,13.562 9.499,13.581 C8.145,12.678 7.728,10.876 8.547,9.469 C10.108,11.392 12.412,12.561 14.886,12.687 C14.836,12.455 14.811,12.219 14.81,11.982 C14.812,10.283 16.19,8.906 17.89,8.90799782 C18.738,8.909 19.549,9.26 20.13,9.879 C20.818,9.746 21.479,9.495 22.081,9.136 C21.852,9.847 21.371,10.449 20.729,10.83 C21.34,10.761 21.937,10.601 22.5,10.355 C22.079,10.967 21.558,11.505 20.958,11.944 M15.005,0 L15,0 C6.716,0 0,6.715 0,15 C0,23.284 6.716,30 15,30 C23.284,30 30,23.284 30,15 C30.001,6.717 23.288,0.001 15.005,0" id="Fill-10" fill="#393939"></path>
                <path d="M20.958,11.944 C20.968,12.077 20.968,12.211 20.968,12.344 C20.968,16.4079978 17.874,21.0910248 12.221,21.0910248 C10.547,21.095 8.908,20.616 7.5,19.711 C7.747,19.738 7.994,19.751 8.242,19.749 C9.626,19.753 10.972,19.29 12.06,18.435 C10.744,18.411 9.59,17.555 9.185,16.303 C9.377,16.334 9.571,16.35 9.766,16.351 C10.038,16.35 10.311,16.315 10.574,16.246 C9.139,15.956 8.107,14.694 8.109,13.229 L8.109,13.191 C8.535,13.429 9.012,13.562 9.499,13.581 C8.145,12.678 7.728,10.876 8.547,9.469 C10.108,11.392 12.412,12.561 14.886,12.687 C14.836,12.455 14.811,12.219 14.81,11.982 C14.812,10.283 16.19,8.906 17.89,8.90799782 C18.738,8.909 19.549,9.26 20.13,9.879 C20.818,9.746 21.479,9.495 22.081,9.136 C21.852,9.847 21.371,10.449 20.729,10.83 C21.34,10.761 21.937,10.601 22.5,10.355 C22.079,10.967 21.558,11.505 20.958,11.944" id="Path" fill="#B6B6B6"></path>
            </g>
        </g>
    </g>
</svg>