<?xml version="1.0" encoding="utf-8"?>
<!-- Generator: Adobe Illustrator 24.1.0, SVG Export Plug-In . SVG Version: 6.00 Build 0)  -->
<svg version="1.1" id="Layer_1" xmlns="http://www.w3.org/2000/svg" xmlns:xlink="http://www.w3.org/1999/xlink" x="0px" y="0px"
	 viewBox="0 0 11 12" style="enable-background:new 0 0 11 12;" xml:space="preserve">
<style type="text/css">
	.st0{fill:#616161;}
	.st1{fill:#B6B6B6;}
	.st2{fill:none;stroke:#616161;stroke-linecap:round;stroke-linejoin:round;stroke-miterlimit:10;}
</style>
<desc>Created with Sketch.</desc>
<g id="icon_x2F_copy_2_">
	<g id="복사_2_">
		<path class="st0" d="M9.2,12H1.8c-1,0-1.8-0.8-1.8-1.8V1.8C0,0.8,0.9,0,1.8,0h7.3c1,0,1.8,0.8,1.8,1.8v8.4C11,11.2,10.1,12,9.2,12
			z M1.8,1.2c-0.4,0-0.6,0.2-0.6,0.6v8.4c0,0.4,0.2,0.6,0.6,0.6h7.3c0.4,0,0.6-0.2,0.6-0.6V1.8c0-0.4-0.2-0.6-0.6-0.6H1.8z"/>
	</g>
</g>
<path class="st1" d="M1.8,1.2c-0.4,0-0.6,0.2-0.6,0.6v8.4c0,0.4,0.2,0.6,0.6,0.6h7.3c0.4,0,0.6-0.2,0.6-0.6V1.8
	c0-0.4-0.2-0.6-0.6-0.6H1.8z"/>
<polyline class="st2" points="8,4 5,8 3,6 "/>
</svg>
