<?xml version="1.0" encoding="UTF-8"?>
<svg width="30px" height="30px" viewBox="0 0 30 30" version="1.1" xmlns="http://www.w3.org/2000/svg" xmlns:xlink="http://www.w3.org/1999/xlink">
    <!-- Generator: Sketch 62 (91390) - https://sketch.com -->
    <title>Fill 10</title>
    <desc>Created with Sketch.</desc>
    <g id="Symbols" stroke="none" stroke-width="1" fill="none" fill-rule="evenodd">
        <g id="icon4" transform="translate(-5.000000, -5.000000)" fill="#393939">
            <path d="M25.958,16.944 C25.968,17.077 25.968,17.211 25.968,17.344 C25.968,21.4079978 22.874,26.0910248 17.221,26.0910248 C15.547,26.095 13.908,25.616 12.5,24.711 C12.747,24.738 12.994,24.751 13.242,24.749 C14.626,24.753 15.972,24.29 17.06,23.435 C15.744,23.411 14.59,22.555 14.185,21.303 C14.377,21.334 14.571,21.35 14.766,21.351 C15.038,21.35 15.311,21.315 15.574,21.246 C14.139,20.956 13.107,19.694 13.109,18.229 L13.109,18.191 C13.535,18.429 14.012,18.562 14.499,18.581 C13.145,17.678 12.728,15.876 13.547,14.469 C15.108,16.392 17.412,17.561 19.886,17.687 C19.836,17.455 19.811,17.219 19.81,16.982 C19.812,15.283 21.19,13.906 22.89,13.9079978 C23.738,13.909 24.549,14.26 25.13,14.879 C25.818,14.746 26.479,14.495 27.081,14.136 C26.852,14.847 26.371,15.449 25.729,15.83 C26.34,15.761 26.937,15.601 27.5,15.355 C27.079,15.967 26.558,16.505 25.958,16.944 M20.005,5 L20,5 C11.716,5 5,11.715 5,20 C5,28.284 11.716,35 20,35 C28.284,35 35,28.284 35,20 C35.001,11.717 28.288,5.001 20.005,5" id="Fill-10"></path>
        </g>
    </g>
</svg>