<?xml version="1.0" encoding="UTF-8"?>
<svg width="30px" height="30px" viewBox="0 0 30 30" version="1.1" xmlns="http://www.w3.org/2000/svg" xmlns:xlink="http://www.w3.org/1999/xlink">
    <!-- Generator: Sketch 62 (91390) - https://sketch.com -->
    <title>Group</title>
    <desc>Created with Sketch.</desc>
    <g id="Symbols" stroke="none" stroke-width="1" fill="none" fill-rule="evenodd">
        <g id="icon2(hover)" transform="translate(-5.000000, -5.000000)">
            <g id="Group" transform="translate(5.000000, 5.000000)">
                <path d="M20.163,20.498 C19.998,21.25 19.549,21.432 18.925,21.079 L15.495,18.551 L13.841,20.144 C13.676,20.358 13.42,20.483 13.149,20.481 L13.394,16.992 L19.748,11.25 C20.025,11.006 19.687,10.868 19.322,11.111 L11.468,16.056 L8.083,14.998 C7.348,14.765 7.331,14.263 8.24,13.909 L21.463,8.81 C22.077,8.589 22.613,8.96 22.414,9.889 L20.163,20.498 Z M0,15 C0,23.285 6.716,30 15,30 C23.284,30 30,23.285 30,15 C30.001,6.718 23.288,0.002 15.005,0 C6.716,0 0,6.716 0,15 Z" id="Fill-1" fill="#393939"></path>
                <path d="M22.415,9.889 L20.163,20.498 C19.998,21.25 19.549,21.432 18.925,21.079 L15.495,18.551 L13.841,20.144 C13.676,20.358 13.42,20.483 13.149,20.481 L13.394,16.992 L19.748,11.25 C20.025,11.006 19.687,10.868 19.322,11.111 L11.468,16.056 L8.083,14.998 C7.348,14.765 7.331,14.263 8.24,13.909 L21.463,8.81 C22.077,8.589 22.613,8.96 22.414,9.889 L22.415,9.889 Z" id="Path" fill="#B6B6B6"></path>
            </g>
        </g>
    </g>
</svg>