<?xml version="1.0" encoding="UTF-8"?>
<svg width="30px" height="30px" viewBox="0 0 30 30" version="1.1" xmlns="http://www.w3.org/2000/svg" xmlns:xlink="http://www.w3.org/1999/xlink">
    <!-- Generator: Sketch 62 (91390) - https://sketch.com -->
    <title>Group 6</title>
    <desc>Created with Sketch.</desc>
    <defs>
        <polygon id="path-1" points="0 0.0003 29.9997 0.0003 29.9997 30 0 30"></polygon>
    </defs>
    <g id="Symbols" stroke="none" stroke-width="1" fill="none" fill-rule="evenodd">
        <g id="icon1" transform="translate(-5.000000, -5.000000)">
            <g id="Group-6" transform="translate(5.000000, 5.000000)">
                <path d="M16.4834,16.4756 C16.3654,15.5586 15.9664,14.7806 15.3024,14.1826 C14.6394,13.5846 13.8234,13.2816 12.8774,13.2816 C12.1924,13.2816 11.5634,13.4456 11.0064,13.7686 C10.4514,14.0916 10.0084,14.5426 9.6914,15.1116 C9.3744,15.6806 9.2124,16.3296 9.2124,17.0386 C9.2124,17.7486 9.3744,18.3976 9.6914,18.9666 C10.0084,19.5356 10.4514,19.9906 11.0074,20.3196 C11.5634,20.6486 12.1924,20.8156 12.8774,20.8156 C13.5594,20.8156 14.1854,20.6486 14.7344,20.3206 C15.2854,19.9916 15.7244,19.5366 16.0434,18.9666 C16.3604,18.3966 16.5214,17.7476 16.5214,17.0386 C16.5214,16.8496 16.5154,16.7046 16.5054,16.6086 C16.4914,16.5686 16.4834,16.5246 16.4834,16.4756" id="Fill-1" fill="#393939"></path>
                <g id="Group-5">
                    <mask id="mask-2" fill="white">
                        <use xlink:href="#path-1"></use>
                    </mask>
                    <g id="Clip-4"></g>
                    <path d="M15.0047,0.0003 C23.2877,0.0013 30.0007,6.7173 29.9997,15.0003 C29.9997,23.2843 23.2837,30.0003 14.9997,30.0003 C6.7157,30.0003 -0.0003,23.2843 -0.0003,15.0003 C-0.0003,6.7153 6.7157,0.0003 14.9997,0.0003 L14.9997,0.0003 Z M21.2577,20.1393 C20.9307,20.1393 20.6387,20.2603 20.3917,20.5013 C20.1427,20.7433 20.0167,21.0453 20.0167,21.3993 C20.0167,21.7403 20.1387,22.0353 20.3807,22.2773 C20.6217,22.5183 20.9167,22.6413 21.2577,22.6413 C21.5987,22.6413 21.8947,22.5183 22.1357,22.2773 C22.3767,22.0353 22.4997,21.7403 22.4997,21.3993 C22.4997,21.0593 22.3777,20.7613 22.1377,20.5133 C21.8957,20.2653 21.5997,20.1393 21.2577,20.1393 Z M17.3677,7.3593 C17.1147,7.3593 16.9017,7.4433 16.7357,7.6103 C16.5687,7.7763 16.4837,7.9893 16.4837,8.2433 L16.4837,8.2433 L16.4837,13.3193 C16.0787,12.8583 15.5927,12.4823 15.0317,12.1963 C14.3357,11.8423 13.5607,11.6633 12.7267,11.6633 C11.7497,11.6633 10.8547,11.9013 10.0647,12.3703 C9.2737,12.8393 8.6427,13.4903 8.1867,14.3053 C7.7317,15.1203 7.4997,16.0393 7.4997,17.0393 C7.4997,18.0383 7.7377,18.9623 8.2057,19.7833 C8.6747,20.6053 9.3257,21.2593 10.1417,21.7283 C10.9557,22.1963 11.8757,22.4343 12.8767,22.4343 C13.8757,22.4343 14.7957,22.1963 15.6117,21.7283 C16.4267,21.2593 17.0767,20.6053 17.5467,19.7833 C18.0157,18.9613 18.2527,18.0383 18.2527,17.0393 L18.2527,17.0393 L18.2527,12.6223 C18.2527,12.5453 18.2457,12.4823 18.2347,12.4323 L18.2347,12.4323 L18.2347,8.2433 C18.2347,7.9913 18.1537,7.7783 17.9937,7.6123 C17.8337,7.4443 17.6227,7.3593 17.3677,7.3593 Z" id="Fill-3" fill="#393939" mask="url(#mask-2)"></path>
                </g>
            </g>
        </g>
    </g>
</svg>