<?xml version="1.0" encoding="UTF-8"?>
<svg width="30px" height="30px" viewBox="0 0 30 30" version="1.1" xmlns="http://www.w3.org/2000/svg" xmlns:xlink="http://www.w3.org/1999/xlink">
    <!-- Generator: Sketch 62 (91390) - https://sketch.com -->
    <title>Group</title>
    <desc>Created with Sketch.</desc>
    <g id="Symbols" stroke="none" stroke-width="1" fill="none" fill-rule="evenodd">
        <g id="icon5(hover)" transform="translate(-5.000000, -5.000000)">
            <g id="Group" transform="translate(5.000000, 5.000000)">
                <path d="M17.441,22.306 C17.057,22.374 16.915,22.137 16.915,21.94 C16.915,21.693 16.923,20.431 16.923,19.411 C16.965,18.889 16.777,18.375 16.407,18.006 C18.099,17.818 19.882,17.585 19.882,14.662 C19.882,13.83 19.586,13.414 19.1,12.879 C19.331,12.207 19.303,11.473 19.023,10.821 C18.387,10.624 16.932,11.64 16.932,11.64 C15.687,11.299 14.373,11.299 13.128,11.64 C13.128,11.64 11.672,10.625 11.037,10.821 C10.754,11.473 10.727,12.209 10.961,12.881 C10.473,13.343 10.212,13.994 10.247,14.664 C10.247,17.573 11.953,17.82 13.645,18.008 C13.369,18.281 13.197,18.641 13.16,19.028 C12.725,19.224 11.614,19.563 10.951,18.392 C10.704,17.965 10.273,17.676 9.785,17.61 C9.045,17.601 9.735,18.077 9.735,18.077 C10.229,18.305 10.577,19.183 10.577,19.183 C11.02,20.541 13.142,20.084 13.142,20.084 C13.142,20.72 13.151,21.752 13.151,21.941 C13.151,22.138 13.014,22.375 12.625,22.307 C9.535,21.249 7.467,18.333 7.494,15.067 C7.494,10.868 10.705,7.681 14.903,7.681 C19.101,7.681 22.504,10.868 22.504,15.067 C22.562,18.322 20.518,21.244 17.441,22.306 M0,15 C0,23.284 6.715,30 15,30 C23.284,30 30,23.284 30,15 C30.001,6.717 23.288,0.001 15.004,0 C6.715,0 0,6.716 0,15 Z" id="Fill-4" fill="#393939"></path>
                <path d="M17.441,22.306 C17.057,22.374 16.915,22.137 16.915,21.94 C16.915,21.693 16.923,20.431 16.923,19.411 C16.965,18.889 16.777,18.375 16.407,18.006 C18.099,17.818 19.882,17.585 19.882,14.662 C19.882,13.83 19.586,13.414 19.1,12.879 C19.331,12.207 19.303,11.473 19.023,10.821 C18.387,10.624 16.932,11.64 16.932,11.64 C15.687,11.299 14.373,11.299 13.128,11.64 C13.128,11.64 11.672,10.625 11.037,10.821 C10.754,11.473 10.727,12.209 10.961,12.881 C10.473,13.343 10.212,13.994 10.247,14.664 C10.247,17.573 11.953,17.82 13.645,18.008 C13.369,18.281 13.197,18.641 13.16,19.028 C12.725,19.224 11.614,19.563 10.951,18.392 C10.704,17.965 10.273,17.676 9.785,17.61 C9.045,17.601 9.735,18.077 9.735,18.077 C10.229,18.305 10.577,19.183 10.577,19.183 C11.02,20.541 13.142,20.084 13.142,20.084 C13.142,20.72 13.151,21.752 13.151,21.941 C13.151,22.138 13.014,22.375 12.625,22.307 C9.535,21.249 7.467,18.333 7.494,15.067 C7.494,10.868 10.705,7.681 14.903,7.681 C19.101,7.681 22.504,10.868 22.504,15.067 C22.562,18.322 20.518,21.244 17.441,22.306" id="Path" fill="#B6B6B6"></path>
            </g>
        </g>
    </g>
</svg>