<?xml version="1.0" encoding="UTF-8"?>
<svg width="139px" height="33px" viewBox="0 0 139 33" version="1.1" xmlns="http://www.w3.org/2000/svg" xmlns:xlink="http://www.w3.org/1999/xlink">
    <!-- Generator: Sketch 64 (93537) - https://sketch.com -->
    <title>FIRMACHAIN TRACKER Copy 3</title>
    <desc>Created with Sketch.</desc>
    <g id="web" stroke="none" stroke-width="1" fill="none" fill-rule="evenodd">
        <g id="component" transform="translate(-898.000000, -161.000000)" fill="#FFFFFF">
            <g id="FIRMACHAIN-TRACKER" transform="translate(898.000000, 161.000000)">
                <g id="symbol" stroke-width="1" fill-rule="evenodd">
                    <polygon id="Path" fill-rule="nonzero" points="14.1461581 23.1083964 13.4527363 22.7236766 13.4527363 15.9550126 16.9569928 14.0073686 14.1461581 12.4444444 10.6666667 14.3800659 10.6666667 24.2986232 14.1461581 26.2222222 23.1111111 21.2569323 20.3869541 19.6459182"></polygon>
                    <polygon id="Path" fill-rule="nonzero" points="14.5399118 0 0 8.07424594 0 24.2466615 2.7677497 25.7777778 2.7677497 9.64124774 14.5399118 3.09811807 19.8416901 6.05269399 20.4444444 3.27754576"></polygon>
                    <polygon id="Path" fill-rule="nonzero" points="26.1720655 9.68168168 26.1720655 22.7627628 14.6165099 29.3333333 8.49460118 25.8498498 8.49460118 12.8168168 14.6165099 9.33333333 20.7384187 12.8048048 23.4552421 11.2672673 23.4552421 11.2432432 14.6165099 6.22222222 5.77777778 11.2432432 5.77777778 27.4234234 14.6165099 32.4444444 28.8888889 24.3363363 28.8888889 8.12012012"></polygon>
                </g>
                <polygon id="Path" fill-rule="nonzero" points="45.9377778 24.8888889 45.9377778 11.6288889 50.6751111 11.6288889 50.6751111 9.02222222 38.1177778 9.02222222 38.1177778 11.6288889 42.8551111 11.6288889 42.8551111 24.8888889"></polygon>
                <path d="M75.0417778,9.02222222 L80.8444444,24.8888889 L77.7164444,24.8888889 L76.4244444,21.3755556 L70.8484444,21.3755556 L69.5564444,24.8888889 L66.4284444,24.8888889 L72.2311111,9.02222222 L75.0417778,9.02222222 Z M73.6364444,12.8075556 L73.5911111,12.8075556 L71.5511111,18.8368889 L75.7444444,18.8368889 L73.6364444,12.8075556 Z" id="Combined-Shape" fill-rule="nonzero"></path>
                <polygon id="Path" fill-rule="nonzero" points="92.5631111 24.8888889 95.1244444 22.3275556 95.1244444 19.9022222 92.0417778 19.9022222 92.0417778 21.1942222 90.9764444 22.2595556 86.4431111 22.2595556 85.2871111 21.1035556 85.2871111 12.8075556 86.4431111 11.6515556 90.9764444 11.6515556 92.0417778 12.7168889 92.0417778 14.0088889 95.1244444 14.0088889 95.1244444 11.5835556 92.5631111 9.02222222 84.8111111 9.02222222 82.2044444 11.6288889 82.2044444 22.2822222 84.8111111 24.8888889"></polygon>
                <polygon id="Path" fill-rule="nonzero" points="100.360444 24.8888889 100.360444 18.2928889 102.740444 18.2928889 106.911111 24.8888889 110.447111 24.8888889 105.415111 16.9328889 110.061778 9.02222222 106.593778 9.02222222 102.763111 15.6635556 100.360444 15.6635556 100.360444 9.02222222 97.2777778 9.02222222 97.2777778 24.8888889"></polygon>
                <polygon id="Path" fill-rule="nonzero" points="123.503111 24.8888889 123.503111 22.2822222 115.116444 22.2822222 115.116444 18.2022222 122.845778 18.2022222 122.845778 15.6408889 115.116444 15.6408889 115.116444 11.6288889 123.503111 11.6288889 123.503111 9.02222222 112.033778 9.02222222 112.033778 24.8888889"></polygon>
                <path d="M135.720444,9.02222222 L138.145778,11.4702222 L138.145778,16.2755556 L136.604444,17.8395556 L138.236444,19.6302222 L138.236444,24.8888889 L135.153778,24.8888889 L135.153778,20.3328889 L133.793778,18.8142222 L128.852444,18.8142222 L128.852444,24.8888889 L125.769778,24.8888889 L125.769778,9.02222222 L135.720444,9.02222222 Z M134.315111,11.6062222 L128.852444,11.6062222 L128.852444,16.2755556 L134.315111,16.2755556 L135.108444,15.4822222 L135.108444,12.3995556 L134.315111,11.6062222 Z" id="Combined-Shape" fill-rule="nonzero"></path>
                <path d="M62.4391111,8.88888889 L64.8644444,11.3368889 L64.8644444,16.1422222 L63.3231111,17.7062222 L64.9551111,19.4968889 L64.9551111,24.7555556 L61.8724444,24.7555556 L61.8724444,20.1995556 L60.5124444,18.6808889 L55.5711111,18.6808889 L55.5711111,24.7555556 L52.4884444,24.7555556 L52.4884444,8.88888889 L62.4391111,8.88888889 Z M61.0337778,11.4728889 L55.5711111,11.4728889 L55.5711111,16.1422222 L61.0337778,16.1422222 L61.8271111,15.3488889 L61.8271111,12.2662222 L61.0337778,11.4728889 Z" id="Combined-Shape" fill-rule="nonzero"></path>
            </g>
        </g>
    </g>
</svg>