<svg width="26px" height="26px" viewBox="0 0 30 30" xmlns="http://www.w3.org/2000/svg">
    <defs>
        <path
            id="x-shape"
            d="M389.2 48h70.6L305.6 224.2 487 464H345L233.7 318.6 106.5 464H35.8L200.7 275.5 26.8 48H172.4L272.9 180.9 389.2 48zM364.4 421.8h39.1L151.1 88h-42L364.4 421.8z"
        />
    </defs>
    <path
        fill="rgba(255,255,255,0.4)"
        d="M15.03 0C17.43 0.01 19.8 0.59 21.93 1.7C24.26 2.9 26.23 4.7 27.64 6.93C29.2 9.33 30.02 12.14 30 15.01C30.01 17.51 29.38 19.98 28.17 22.17C26.93 24.45 25.12 26.37 22.91 27.73C20.53 29.21 17.8 29.99 15 30C11.11 30.01 7.37 28.49 4.59 25.77C1.65 22.96 -0.02 19.05 0 14.98C0.02 12.47 0.65 10 1.86 7.8C3.13 5.46 5.01 3.51 7.29 2.15C9.63 0.74 12.3 0 15.03 0Z"
    />
    <g transform="translate(15 15) scale(0.035) translate(-256 -256)" fill="#000" mix-blend-mode="destination-out">
        <use href="#x-shape" />
    </g>
</svg>
